<svg width="41" height="40" viewBox="0 0 41 40" fill="none" xmlns="http://www.w3.org/2000/svg">
<g clip-path="url(#clip0_284_675)">
<path d="M35.5 16.2611C35.5 27.6432 20.5 37.3993 20.5 37.3993C20.5 37.3993 5.5 27.6432 5.5 16.2611C5.5 12.3799 7.08035 8.65763 9.8934 5.91319C12.7064 3.16876 16.5218 1.62695 20.5 1.62695C24.4782 1.62695 28.2936 3.16876 31.1066 5.91319C33.9196 8.65763 35.5 12.3799 35.5 16.2611Z" stroke="black" stroke-width="3.5" stroke-linecap="round" stroke-linejoin="round"/>
<path d="M20.5 21.1391C23.2614 21.1391 25.5 18.9552 25.5 16.2611C25.5 13.567 23.2614 11.3831 20.5 11.3831C17.7386 11.3831 15.5 13.567 15.5 16.2611C15.5 18.9552 17.7386 21.1391 20.5 21.1391Z" stroke="black" stroke-width="3.5" stroke-linecap="round" stroke-linejoin="round"/>
</g>
<defs>
<clipPath id="clip0_284_675">
<rect width="40" height="39.0244" fill="white" transform="translate(0.5)"/>
</clipPath>
</defs>
</svg>
