<svg width="40" height="39" viewBox="0 0 40 39" fill="none" xmlns="http://www.w3.org/2000/svg">
<path d="M29.1666 10.5557H29.1833M11.6666 3.24805H28.3333C32.9357 3.24805 36.6666 6.88334 36.6666 11.3677V27.607C36.6666 32.0914 32.9357 35.7267 28.3333 35.7267H11.6666C7.06427 35.7267 3.33331 32.0914 3.33331 27.607V11.3677C3.33331 6.88334 7.06427 3.24805 11.6666 3.24805ZM26.6666 18.4643C26.8723 19.8158 26.6354 21.1961 25.9896 22.4088C25.3437 23.6216 24.3219 24.605 23.0694 25.2193C21.8168 25.8336 20.3974 26.0474 19.013 25.8303C17.6285 25.6133 16.3496 24.9764 15.358 24.0103C14.3665 23.0442 13.7129 21.798 13.4901 20.4491C13.2673 19.1001 13.4868 17.7171 14.1172 16.4967C14.7476 15.2763 15.757 14.2806 17.0016 13.6513C18.2463 13.0221 19.6629 12.7912 21.05 12.9916C22.4649 13.1961 23.7747 13.8385 24.7861 14.8239C25.7975 15.8094 26.4568 17.0857 26.6666 18.4643Z" stroke="#1E1E1E" stroke-width="4" stroke-linecap="round" stroke-linejoin="round"/>
</svg>
